0
SECTION
2
HEADER
9
$INSUNITS
70
4
9
$ACADVER
1
AC1014
9
$HANDSEED
5
FFFF
0
ENDSEC
0
SECTION
2
TABLES
0
TABLE
2
VPORT
5
8
100
AcDbSymbolTable
0
ENDTAB
0
TABLE
2
LTYPE
5
5
100
AcDbSymbolTable
0
LTYPE
5
14
100
AcDbSymbolTableRecord
100
AcDbLinetypeTableRecord
2
BYBLOCK
70
0
0
LTYPE
5
15
100
AcDbSymbolTableRecord
100
AcDbLinetypeTableRecord
2
BYLAYER
70
0
0
ENDTAB
0
TABLE
2
LAYER
5
2
100
AcDbSymbolTable
70
2
0
LAYER
5
50
100
AcDbSymbolTableRecord
100
AcDbLayerTableRecord
2
0
70
0
6
CONTINUOUS
0
ENDTAB
0
TABLE
2
STYLE
5
3
100
AcDbSymbolTable
70
1
0
STYLE
5
11
100
AcDbSymbolTableRecord
100
AcDbTextStyleTableRecord
2
STANDARD
70
0
0
ENDTAB
0
TABLE
2
VIEW
5
6
100
AcDbSymbolTable
70
0
0
ENDTAB
0
TABLE
2
UCS
5
7
100
AcDbSymbolTable
70
0
0
ENDTAB
0
TABLE
2
APPID
5
9
100
AcDbSymbolTable
70
2
0
APPID
5
12
100
AcDbSymbolTableRecord
100
AcDbRegAppTableRecord
2
ACAD
70
0
0
ENDTAB
0
TABLE
2
DIMSTYLE
5
A
100
AcDbSymbolTable
70
1
0
ENDTAB
0
TABLE
2
BLOCK_RECORD
5
1
100
AcDbSymbolTable
70
1
0
BLOCK_RECORD
5
1F
100
AcDbSymbolTableRecord
100
AcDbBlockTableRecord
2
*MODEL_SPACE
0
BLOCK_RECORD
5
1B
100
AcDbSymbolTableRecord
100
AcDbBlockTableRecord
2
*PAPER_SPACE
0
ENDTAB
0
ENDSEC
0
SECTION
2
BLOCKS
0
BLOCK
5
20
100
AcDbEntity
100
AcDbBlockBegin
2
*MODEL_SPACE
0
ENDBLK
5
21
100
AcDbEntity
100
AcDbBlockEnd
0
BLOCK
5
1C
100
AcDbEntity
100
AcDbBlockBegin
2
*PAPER_SPACE
0
ENDBLK
5
1D
100
AcDbEntity
100
AcDbBlockEnd
0
ENDSEC
0
SECTION
2
ENTITIES
0
SPLINE
5
100
100
AcDbEntity
8
0
100
AcDbSpline
70
0
71
3
72
22
73
18
74
0
42
0.000000001
43
0.0000000001
44
0.0000000001
40
0
40
0
40
0
40
0
40
0.125
40
0.125
40
0.25
40
0.25
40
0.375
40
0.375
40
0.5
40
0.5
40
0.625
40
0.625
40
0.75
40
0.75
40
0.875
40
0.875
40
1
40
1
40
1
40
1
10
-75.953661717890085
20
79.878744388234992
30
0
10
-75.867611007833034
20
79.318970737296297
30
0
10
-75.760542531951415
20
78.769058637324122
30
0
10
-75.497565440302949
20
77.701114666145628
30
0
10
-75.341434303317371
20
77.18342116329373
30
0
10
-74.964372001955454
20
76.20991118903595
30
0
10
-74.743039918774457
20
75.754418782456852
30
0
10
-74.220653298855524
20
74.942565891624113
30
0
10
-73.919548965839283
20
74.586557531878256
30
0
10
-73.231746045056127
20
74.008144031785221
30
0
10
-72.844316046508069
20
73.786093902619484
30
0
10
-71.993530755306637
20
73.496611586413565
30
0
10
-71.530167875992575
20
73.429603242471174
30
0
10
-70.575014903180659
20
73.446657294982685
30
0
10
-70.084661605541129
20
73.531104194817999
30
0
10
-69.13288544251256
20
73.808994810073983
30
0
10
-68.672730455075708
20
74.001961895556931
30
0
10
-68.238655313723172
20
74.20991422899931
30
0
0
ARC
5
101
100
AcDbEntity
8
0
100
AcDbCircle
10
-79.449067541721519
20
79.589746352860672
30
0
40
3.5073325673116362
210
0
220
-0
230
1
100
AcDbArc
50
4.7264301192287208
51
82.424326514823576
0
CIRCLE
5
102
100
AcDbEntity
8
0
100
AcDbCircle
10
-12.5
20
38.000000298023252
30
0
40
2.7999999999999998
210
0
220
0
230
1
0
CIRCLE
5
103
100
AcDbEntity
8
0
100
AcDbCircle
10
-12.5
20
38.000000298023252
30
0
40
2.1099999999999999
210
0
220
0
230
1
0
LINE
5
104
100
AcDbEntity
8
0
100
AcDbLine
10
-80.535146670255813
20
83.272406453553813
30
0
11
-78.986676492924843
21
83.066465532736657
31
0
0
ARC
5
105
100
AcDbEntity
8
0
100
AcDbCircle
10
-80.139640080425096
20
86.246221265777677
30
0
40
3.0000000000002243
210
0
220
0
230
1
100
AcDbArc
50
223.84343178839904
51
262.42432653289927
0
ARC
5
106
100
AcDbEntity
8
0
100
AcDbCircle
10
-79.083710578619744
20
96.583776358640421
30
0
40
4.0000000027558897
210
0
220
0
230
1
100
AcDbArc
50
-106.73417715931539
51
16.734177159315593
0
CIRCLE
5
107
100
AcDbEntity
8
0
100
AcDbCircle
10
-70
20
79.5
30
0
40
1.4999999999999991
210
0
220
0
230
1
0
LINE
5
108
100
AcDbEntity
8
0
100
AcDbLine
10
-80.235437833821976
20
92.75317270494935
30
0
11
-87.440887130763571
21
94.919596875006448
31
0
0
LINE
5
109
100
AcDbEntity
8
0
100
AcDbLine
10
-74.118849088652098
20
106.95928725204868
30
0
11
-66.668085218113788
21
99.803411931689809
31
0
0
LINE
5
110
100
AcDbEntity
8
0
100
AcDbLine
10
-8.1712413977136858e-15
20
45.000000298023217
30
0
11
-18.34512886424347
21
45.000000298023252
31
0
0
ARC
5
111
100
AcDbEntity
8
0
100
AcDbCircle
10
-68.746155485757029
20
97.639705860445702
30
0
40
3.0000000000002238
210
0
220
-0
230
1
100
AcDbArc
50
7.575673467100553
51
46.156568211599996
0
CIRCLE
5
112
100
AcDbEntity
8
0
100
AcDbCircle
10
-78
20
87.5
30
0
40
1.4999999999999991
210
0
220
0
230
1
0
ARC
5
113
100
AcDbEntity
8
0
100
AcDbCircle
10
-51.968512274789312
20
84.02341914373261
30
0
40
5.042103881664918
210
0
220
0
230
1
100
AcDbArc
50
160.11073477316594
51
228.84184292453685
0
LINE
5
114
100
AcDbEntity
8
0
100
AcDbLine
10
-89.459221472028062
20
91.618914868672775
30
0
11
-82.303346151669231
21
84.168150998134479
31
0
0
LINE
5
115
100
AcDbEntity
8
0
100
AcDbLine
10
-4.4408920985006254e-15
20
42.019703669735335
30
0
11
-7.8048481160623719
21
42.019703669735335
31
0
0
LINE
5
116
100
AcDbEntity
8
0
100
AcDbLine
10
-75.253106924928673
20
97.735503613842667
30
0
11
-77.419531094985729
21
104.94095291078423
31
0
0
LINE
5
117
100
AcDbEntity
8
0
100
AcDbLine
10
-8.1712413977136858e-15
20
45.000000298023217
30
0
11
-4.4408920985006254e-15
21
42.019703669735335
31
0
0
LINE
5
118
100
AcDbEntity
8
0
100
AcDbLine
10
-65.772340673533208
20
98.035212450276404
30
0
11
-65.56639519571317
21
96.486708573321707
31
0
0
ARC
5
119
100
AcDbEntity
8
0
100
AcDbCircle
10
-18.345128864243463
20
49.000000298023245
30
0
40
3.9999999999999973
210
0
220
0
230
1
100
AcDbArc
50
225.04849330395945
51
269.99999999999989
0
ARC
5
120
100
AcDbEntity
8
0
100
AcDbCircle
10
-88.016750758210165
20
93.004295048674877
30
0
40
2.0000000008412262
210
0
220
-0
230
1
100
AcDbArc
50
73.265822840684336
51
223.84343182774984
0
ARC
5
121
100
AcDbEntity
8
0
100
AcDbCircle
10
-66.548135682197071
20
69.370178374071514
30
0
40
5.1264772039016657
210
0
220
-0
230
1
100
AcDbArc
50
41.786756550196287
51
109.25559438514983
0
LINE
5
122
100
AcDbEntity
8
0
100
AcDbLine
10
-55.286921506553369
20
80.227240575218815
30
0
11
-21.171161086522403
21
46.169180296920885
31
0
0
ARC
5
123
100
AcDbEntity
8
0
100
AcDbCircle
10
-7.8105644599265842
20
35.000000506639481
30
0
40
1.0000000000000033
210
0
220
0
230
1
100
AcDbArc
50
150.03634736663167
51
269.99999999999983
0
CIRCLE
5
124
100
AcDbEntity
8
0
100
AcDbCircle
10
-62
20
87.5
30
0
40
1.5000000000000036
210
0
220
0
230
1
0
ARC
5
125
100
AcDbEntity
8
0
100
AcDbCircle
10
-62.089628311784999
20
96.949106135146053
30
0
40
3.5073807136324091
210
0
220
0
230
1
100
AcDbArc
50
187.575676214727
51
265.27169942835997
0
CIRCLE
5
126
100
AcDbEntity
8
0
100
AcDbCircle
10
-70
20
95.5
30
0
40
1.5000000000000036
210
0
220
0
230
1
0
ARC
5
127
100
AcDbEntity
8
0
100
AcDbCircle
10
-75.5042292686542
20
105.51681653823081
30
0
40
2.0000000008412306
210
0
220
-0
230
1
100
AcDbArc
50
46.156568172249578
51
196.73417715931558
0
SPLINE
5
128
100
AcDbEntity
8
0
100
AcDbSpline
70
0
71
3
72
22
73
18
74
0
42
0.000000001
43
0.0000000001
44
0.0000000001
40
0
40
0
40
0
40
0
40
0.125
40
0.125
40
0.25
40
0.25
40
0.375
40
0.375
40
0.5
40
0.5
40
0.625
40
0.625
40
0.75
40
0.75
40
0.875
40
0.875
40
1
40
1
40
1
40
1
10
-62.378744425200203
20
93.453661765209091
30
0
10
-61.818970773727209
20
93.367611058627503
30
0
10
-61.269058673090285
20
93.260542586160241
30
0
10
-60.201114700279035
20
92.997565501142446
30
0
10
-59.683421196457722
20
92.841434367371107
30
0
10
-58.709911219858817
20
92.464372072053521
30
0
10
-58.254418811905531
20
92.24303999170067
30
0
10
-57.44256591782937
20
91.720653376822341
30
0
10
-57.086557556214032
20
91.419549046016485
30
0
10
-56.508144051850536
20
90.731746128824597
30
0
10
-56.286093920279335
20
90.344316131655205
30
0
10
-55.996611598791048
20
89.49353084225109
30
0
10
-55.92960325197172
20
89.030167963353094
30
0
10
-55.946657298552864
20
88.075014990435264
30
0
10
-56.031104195343666
20
87.584661692271467
30
0
10
-56.308994804690251
20
86.632885527517516
30
0
10
-56.501961887316163
20
86.172730538882547
30
0
10
-56.709914218063453
20
85.738655396238869
30
0
0
LINE
5
129
100
AcDbEntity
8
0
100
AcDbLine
10
-62.72568026275443
20
72.786258450489058
30
0
11
-22.110994985542405
21
32.171573173277039
31
0
0
LINE
5
130
100
AcDbEntity
8
0
100
AcDbLine
10
-1.1155520887906101e-14
20
31.000000298023238
30
0
11
-19.282567860796217
21
31.000000298023238
31
0
0
ARC
5
131
100
AcDbEntity
8
0
100
AcDbCircle
10
-7.8073738382155922
20
41.019706859376626
30
0
40
0.99999999999999212
210
0
220
-0
230
1
100
AcDbArc
50
89.855286626536511
51
209.90291573683831
0
CIRCLE
5
132
100
AcDbEntity
8
0
100
AcDbCircle
10
-70
20
87.5
30
0
40
4.0000000000000044
210
0
220
0
230
1
0
ARC
5
133
100
AcDbEntity
8
0
100
AcDbCircle
10
-19.282567860796235
20
35.00000029802321
30
0
40
3.999999999999972
210
0
220
0
230
1
100
AcDbArc
50
225
51
270.00000000000023
0
LINE
5
134
100
AcDbEntity
8
0
100
AcDbLine
10
-1.1155520887906101e-14
20
31.000000298023238
30
0
11
-5.5511151231257827e-15
21
34.000000506639481
31
0
0
ARC
5
135
100
AcDbEntity
8
0
100
AcDbCircle
10
13.036234930947646
20
38.012624287870743
30
0
40
5.0318764840588006
210
0
220
0
230
-1
100
AcDbArc
50
150.09708426316143
51
209.96365263336884
0
LINE
5
136
100
AcDbEntity
8
0
100
AcDbLine
10
-7.8105644599265878
20
34.000000506639473
30
0
11
-5.5511151231257827e-15
21
34.000000506639481
31
0
0
ENDSEC
0
SECTION
2
OBJECTS
0
DICTIONARY
5
C
100
AcDbDictionary
3
ACAD_GROUP
350
D
3
ACAD_MLINESTYLE
350
17
0
DICTIONARY
5
D
100
AcDbDictionary
0
DICTIONARY
5
1A
330
C
100
AcDbDictionary
0
DICTIONARY
5
17
100
AcDbDictionary
0
ENDSEC
0
EOF
