0
SECTION
2
HEADER
9
$INSUNITS
70
4
9
$ACADVER
1
AC1014
9
$HANDSEED
5
FFFF
0
ENDSEC
0
SECTION
2
TABLES
0
TABLE
2
VPORT
5
8
100
AcDbSymbolTable
0
ENDTAB
0
TABLE
2
LTYPE
5
5
100
AcDbSymbolTable
0
LTYPE
5
14
100
AcDbSymbolTableRecord
100
AcDbLinetypeTableRecord
2
BYBLOCK
70
0
0
LTYPE
5
15
100
AcDbSymbolTableRecord
100
AcDbLinetypeTableRecord
2
BYLAYER
70
0
0
ENDTAB
0
TABLE
2
LAYER
5
2
100
AcDbSymbolTable
70
2
0
LAYER
5
50
100
AcDbSymbolTableRecord
100
AcDbLayerTableRecord
2
0
70
0
6
CONTINUOUS
0
ENDTAB
0
TABLE
2
STYLE
5
3
100
AcDbSymbolTable
70
1
0
STYLE
5
11
100
AcDbSymbolTableRecord
100
AcDbTextStyleTableRecord
2
STANDARD
70
0
0
ENDTAB
0
TABLE
2
VIEW
5
6
100
AcDbSymbolTable
70
0
0
ENDTAB
0
TABLE
2
UCS
5
7
100
AcDbSymbolTable
70
0
0
ENDTAB
0
TABLE
2
APPID
5
9
100
AcDbSymbolTable
70
2
0
APPID
5
12
100
AcDbSymbolTableRecord
100
AcDbRegAppTableRecord
2
ACAD
70
0
0
ENDTAB
0
TABLE
2
DIMSTYLE
5
A
100
AcDbSymbolTable
70
1
0
ENDTAB
0
TABLE
2
BLOCK_RECORD
5
1
100
AcDbSymbolTable
70
1
0
BLOCK_RECORD
5
1F
100
AcDbSymbolTableRecord
100
AcDbBlockTableRecord
2
*MODEL_SPACE
0
BLOCK_RECORD
5
1B
100
AcDbSymbolTableRecord
100
AcDbBlockTableRecord
2
*PAPER_SPACE
0
ENDTAB
0
ENDSEC
0
SECTION
2
BLOCKS
0
BLOCK
5
20
100
AcDbEntity
100
AcDbBlockBegin
2
*MODEL_SPACE
0
ENDBLK
5
21
100
AcDbEntity
100
AcDbBlockEnd
0
BLOCK
5
1C
100
AcDbEntity
100
AcDbBlockBegin
2
*PAPER_SPACE
0
ENDBLK
5
1D
100
AcDbEntity
100
AcDbBlockEnd
0
ENDSEC
0
SECTION
2
ENTITIES
0
LWPOLYLINE
5
100
100
AcDbEntity
8
0
100
AcDbPolyline
90
36
70
1
43
0.0
10
18.509728473108545
20
-43.828427422769423
42
-0.19891236737965662
10
15.681301348362355
20
-45.000000298023224
10
-2.6645352591003757e-14
20
-45.000000298023217
10
-15.681301348362384
20
-45.000000298023231
42
-0.19891236737965626
10
-18.509728473108567
20
-43.82842742276943
10
-24.724575291698585
20
-37.613580604179418
42
-0.41421356237309503
10
-24.724575291698581
20
-34.785153479433234
10
-20.157786338132702
20
-30.218364525867294
42
0.19891236737965681
10
-17.814640587625121
20
-24.56151027637496
10
-17.814640587625121
20
-15.225305312772765
42
0.16356941072373621
10
-18.626761220076204
20
-12.809228919536029
42
-0.4137439579198457
10
-17.814640587625121
20
-6.8773470892625301
42
0.49584220076476326
10
-17.814640587625124
20
16.87753289870053
42
-0.37231847838311938
10
-18.95790480606135
20
22.299965278298277
42
0.3797064677295986
10
-19.384374178214316
20
29.444952365948943
10
-22.919908084147057
20
32.980486271881681
10
-24.724575291698585
20
34.785153479433227
42
-0.41421356237309365
10
-24.724575291698589
20
37.613580604179418
10
-18.509728473108574
20
43.82842742276943
42
-0.19891236737965673
10
-15.68130134836238
20
45.000000298023238
10
-8.8817841970012523e-15
20
45.000000298023217
10
15.681301348362371
20
45.000000298023231
42
-0.19891236737965684
10
18.50972847310857
20
43.828427422769423
10
24.724575291698585
20
37.613580604179404
42
-0.4142135623730932
10
24.724575291698585
20
34.78515347943322
10
22.919908084147039
20
32.980486271881688
10
19.384374178214298
20
29.444952365948929
42
0.37970646772959854
10
18.957904806061329
20
22.299965278298256
42
-0.37231847838311932
10
17.814640587625103
20
16.877532898700519
42
0.4958422007647631
10
17.814640587625107
20
-6.8773470892625284
42
-0.41374395791984514
10
18.626761220076176
20
-12.809228919536015
42
0.16356941072373629
10
17.814640587625092
20
-15.225305312772761
10
17.814640587625096
20
-24.56151027637496
42
0.19891236737965656
10
20.157786338132677
20
-30.218364525867287
10
24.724575291698564
20
-34.78515347943322
42
-0.41421356237309503
10
24.724575291698564
20
-37.613580604179404
0
LWPOLYLINE
5
101
100
AcDbEntity
8
0
100
AcDbPolyline
90
8
70
1
43
0.0
10
-3.9999999999999991
20
-18.000000372529033
10
-3.9999999999999982
20
-20.000000372529033
42
-0.41421356237309276
10
-5.0000000000000044
20
-21.000000372529048
10
-6.9999999999999973
20
-21.000000372529044
42
-0.41421356237309698
10
-8.0000000000000036
20
-20.000000372529033
10
-8.0000000000000036
20
-18.000000372529033
42
-0.4142135623730937
10
-7.0000000000000018
20
-17.000000372529033
10
-5.0000000000000044
20
-17.00000037252903
42
-0.41421356237309537
0
CIRCLE
5
102
100
AcDbEntity
8
0
100
AcDbCircle
10
15.249999999999988
20
-10.250000000000002
30
0
40
1.5000000000000002
210
0
220
0
230
1
0
CIRCLE
5
103
100
AcDbEntity
8
0
100
AcDbCircle
10
-10.000000000000009
20
15
30
0
40
1.5000000000000002
210
0
220
0
230
1
0
CIRCLE
5
104
100
AcDbEntity
8
0
100
AcDbCircle
10
-12.5
20
-38.000000298023252
30
0
40
1.5000000000000013
210
0
220
0
230
1
0
CIRCLE
5
105
100
AcDbEntity
8
0
100
AcDbCircle
10
12.499999999999989
20
38.000000298023231
30
0
40
1.5000000000000002
210
0
220
0
230
1
0
CIRCLE
5
106
100
AcDbEntity
8
0
100
AcDbCircle
10
9.9999999999999876
20
-5
30
0
40
1.5000000000000002
210
0
220
0
230
1
0
LWPOLYLINE
5
107
100
AcDbEntity
8
0
100
AcDbPolyline
90
8
70
1
43
0.0
10
0.99999999999999645
20
-17.00000037252903
42
-0.4142135623730957
10
2.0000000000000022
20
-18.000000372529033
10
2.0000000000000031
20
-20.000000372529033
42
-0.41421356237309287
10
0.99999999999999645
20
-21.000000372529048
10
-0.99999999999999634
20
-21.000000372529041
42
-0.41421356237309559
10
-2.000000000000004
20
-20.000000372529033
10
-2.0000000000000013
20
-18.000000372529037
42
-0.41421356237309537
10
-0.99999999999999978
20
-17.000000372529033
0
CIRCLE
5
108
100
AcDbEntity
8
0
100
AcDbCircle
10
-12.5
20
38.000000298023252
30
0
40
1.5000000000000013
210
0
220
0
230
1
0
CIRCLE
5
109
100
AcDbEntity
8
0
100
AcDbCircle
10
12.5
20
-38.000000298023231
30
0
40
1.5000000000000002
210
0
220
0
230
1
0
LWPOLYLINE
5
110
100
AcDbEntity
8
0
100
AcDbPolyline
90
8
70
1
43
0.0
10
8.0000000000000036
20
-18.000000372529033
10
8.0000000000000036
20
-20.000000372529033
42
-0.41421356237309503
10
6.9999999999999973
20
-21.000000372529041
10
5.0000000000000044
20
-21.000000372529041
42
-0.41421356237309859
10
4.0000000000000044
20
-20.000000372529033
10
3.9999999999999987
20
-18.000000372529033
42
-0.41421356237309653
10
5
20
-17.000000372529033
10
6.9999999999999973
20
-17.00000037252903
42
-0.4142135623730947
0
CIRCLE
5
111
100
AcDbEntity
8
0
100
AcDbCircle
10
0
20
-38.000000298023252
30
0
40
1.5000000000000013
210
0
220
0
230
1
0
CIRCLE
5
112
100
AcDbEntity
8
0
100
AcDbCircle
10
9.9999999999999929
20
15
30
0
40
1.5000000000000002
210
0
220
0
230
1
0
CIRCLE
5
113
100
AcDbEntity
8
0
100
AcDbCircle
10
-15.250000000000007
20
20.25
30
0
40
1.5000000000000002
210
0
220
0
230
1
0
CIRCLE
5
114
100
AcDbEntity
8
0
100
AcDbCircle
10
15.249999999999995
20
20.25
30
0
40
1.5000000000000002
210
0
220
0
230
1
0
CIRCLE
5
115
100
AcDbEntity
8
0
100
AcDbCircle
10
-10.000000000000009
20
-5
30
0
40
1.5000000000000002
210
0
220
0
230
1
0
LWPOLYLINE
5
116
100
AcDbEntity
8
0
100
AcDbPolyline
90
6
70
1
43
0.0
10
-0.35355339059327362
20
3.6464466839125329
10
-4.1464466839125329
20
-0.14644660940672619
42
0.66817863791929955
10
-3.792893293319259
20
-1.0000000000000004
10
3.792893293319259
20
-1.0000000000000002
42
0.66817863791929921
10
4.1464466839125311
20
-0.14644660940672571
10
0.35355339059327373
20
3.6464466839125329
42
0.41421356237309553
0
LWPOLYLINE
5
117
100
AcDbEntity
8
0
100
AcDbPolyline
90
8
70
1
43
0.0
10
1.9999999999999996
20
-26.000000372529041
42
-0.41421356237309698
10
0.99999999999999645
20
-27.00000037252903
10
-0.99999999999999645
20
-27.000000372529037
42
-0.41421356237309825
10
-1.9999999999999976
20
-26.000000372529044
10
-2.0000000000000044
20
-24.000000372529033
42
-0.41421356237309875
10
-0.99999999999999978
20
-23.000000372529033
10
0.99999999999999634
20
-23.000000372529033
42
-0.41421356237309492
10
2.0000000000000058
20
-24.000000372529033
0
LWPOLYLINE
5
118
100
AcDbEntity
8
0
100
AcDbPolyline
90
10
70
1
43
0.0
10
-4.2426406871192839
20
17.837572949759618
42
0.41421356237309415
10
-2.8284271247461872
20
17.837572949759618
10
-5.5511151231257827e-16
20
20.666000074505803
10
2.828427124746189
20
17.837572949759618
42
0.41421356237309503
10
4.2426406871192812
20
17.837572949759618
10
4.5961940777125596
20
18.191126340352891
42
0.41421356237309415
10
4.5961940777125578
20
19.605339902725991
10
-1.1102230246251565e-15
20
24.201533980438548
10
-4.5961940777125578
20
19.605339902725987
42
0.41421356237309459
10
-4.5961940777125578
20
18.191126340352891
0
LWPOLYLINE
5
119
100
AcDbEntity
8
0
100
AcDbPolyline
90
8
70
1
43
0.0
10
3.9999999999999987
20
-24.000000372529033
42
-0.41421356237310042
10
5
20
-23.000000372529033
10
6.9999999999999973
20
-23.000000372529033
42
-0.41421356237309503
10
8.0000000000000071
20
-24.000000372529033
10
8.0000000000000053
20
-26.000000372529044
42
-0.41421356237309342
10
6.9999999999999973
20
-27.000000372529041
10
5.0000000000000044
20
-27.00000037252903
42
-0.41421356237309992
10
4.0000000000000089
20
-26.000000372529044
0
LWPOLYLINE
5
120
100
AcDbEntity
8
0
100
AcDbPolyline
90
8
70
1
43
0.0
10
-14.000000000000005
20
-18.000000372529033
42
-0.41421356237309309
10
-13.000000000000007
20
-17.000000372529033
10
-11.000000000000005
20
-17.00000037252903
42
-0.41421356237309503
10
-10
20
-18.000000372529033
10
-10
20
-20.000000372529033
42
-0.41421356237309243
10
-11.000000000000005
20
-21.000000372529048
10
-12.999999999999998
20
-21.000000372529037
42
-0.41421356237309631
10
-14.000000000000005
20
-20.000000372529033
0
LWPOLYLINE
5
121
100
AcDbEntity
8
0
100
AcDbPolyline
90
10
70
1
43
0.0
10
-2.8284271247461872
20
-7.8375726517363953
42
0.4142135623730932
10
-4.2426406871192883
20
-7.8375726517363997
10
-4.5961940777125578
20
-8.1911260423296728
42
0.41421356237309437
10
-4.5961940777125569
20
-9.6053396047027633
10
0
20
-14.201533682415322
10
4.5961940777125578
20
-9.605339604702765
42
0.41421356237309609
10
4.5961940777125578
20
-8.1911260423296728
10
4.2426406871192839
20
-7.8375726517364042
42
0.41421356237309637
10
2.8284271247461867
20
-7.8375726517364042
10
0
20
-10.665999776482584
0
LWPOLYLINE
5
122
100
AcDbEntity
8
0
100
AcDbPolyline
90
6
70
1
43
0.0
10
3.7928932933192594
20
-3.0000002980232221
10
-3.7928932933192594
20
-3.0000002980232217
42
0.66817863791930043
10
-4.1464466839125329
20
-3.8535536886164978
10
-0.35355339059327312
20
-7.646446981935755
42
0.41421356237309498
10
0.35355339059327306
20
-7.646446981935755
10
4.1464466839125329
20
-3.8535536886164974
42
0.6681786379192991
0
LWPOLYLINE
5
123
100
AcDbEntity
8
0
100
AcDbPolyline
90
8
70
1
43
0.0
10
14.000000000000007
20
-26.000000372529044
42
-0.4142135623730937
10
12.999999999999998
20
-27.000000372529041
10
11.000000000000005
20
-27.00000037252903
42
-0.41421356237310025
10
10.000000000000009
20
-26.000000372529044
10
9.9999999999999982
20
-24.000000372529033
42
-0.41421356237310086
10
11
20
-23.000000372529033
10
12.999999999999998
20
-23.000000372529037
42
-0.4142135623730957
10
14.000000000000007
20
-24.000000372529033
0
LWPOLYLINE
5
124
100
AcDbEntity
8
0
100
AcDbPolyline
90
8
70
1
43
0.0
10
-9.9999999999999964
20
-24.000000372529033
10
-10.000000000000002
20
-26.000000372529044
42
-0.41421356237309437
10
-11.000000000000005
20
-27.00000037252903
10
-12.999999999999998
20
-27.00000037252903
42
-0.4142135623731022
10
-14.000000000000004
20
-26.000000372529044
10
-14.000000000000007
20
-24.000000372529033
42
-0.41421356237309764
10
-13.000000000000007
20
-23.000000372529033
10
-11.000000000000005
20
-23.000000372529037
42
-0.41421356237309309
0
LWPOLYLINE
5
125
100
AcDbEntity
8
0
100
AcDbPolyline
90
8
70
1
43
0.0
10
10
20
-18.000000372529033
42
-0.41421356237309437
10
11
20
-17.00000037252903
10
12.999999999999998
20
-17.00000037252903
42
-0.41421356237309631
10
14.000000000000005
20
-18.000000372529033
10
14.000000000000005
20
-20.000000372529037
42
-0.41421356237309176
10
12.999999999999998
20
-21.000000372529041
10
11.000000000000005
20
-21.000000372529044
42
-0.41421356237309825
10
10.000000000000004
20
-20.000000372529033
0
CIRCLE
5
126
100
AcDbEntity
8
0
100
AcDbCircle
10
-15.250000000000007
20
-10.250000000000002
30
0
40
1.5000000000000002
210
0
220
0
230
1
0
LWPOLYLINE
5
127
100
AcDbEntity
8
0
100
AcDbPolyline
90
6
70
1
43
0.0
10
4.1464466839125436
20
10.146446609406725
10
0.35355339059329088
20
6.353553316087468
42
-0.41421356237310974
10
-0.35355339059329083
20
6.353553316087468
10
-4.1464466839125436
20
10.146446609406725
42
-0.66817863791929022
10
-3.7928932933192527
20
11
10
3.7928932933192527
20
11
42
-0.66817863791928955
0
CIRCLE
5
128
100
AcDbEntity
8
0
100
AcDbCircle
10
2.2204460492503127e-15
20
38.000000298023252
30
0
40
1.5000000000000013
210
0
220
0
230
1
0
LWPOLYLINE
5
129
100
AcDbEntity
8
0
100
AcDbPolyline
90
8
70
1
43
0.0
10
-5.0000000000000044
20
-27.00000037252903
10
-6.9999999999999973
20
-27.000000372529037
42
-0.41421356237309859
10
-8
20
-26.000000372529044
10
-8.0000000000000053
20
-24.000000372529033
42
-0.41421356237309825
10
-7.0000000000000018
20
-23.000000372529033
10
-5.0000000000000044
20
-23.000000372529037
42
-0.4142135623730937
10
-3.9999999999999947
20
-24.000000372529033
10
-4.0000000000000018
20
-26.000000372529044
42
-0.41421356237309698
0
LWPOLYLINE
5
130
100
AcDbEntity
8
0
100
AcDbPolyline
90
6
70
1
43
0.0
10
3.7928932933192527
20
13.000000298023222
10
-3.7928932933192527
20
13.000000298023224
42
-0.66817863791929444
10
-4.1464466839125436
20
13.853553688616495
10
-0.35355339059329088
20
17.646446981935753
42
-0.41421356237310974
10
0.35355339059329083
20
17.646446981935753
10
4.1464466839125418
20
13.853553688616493
42
-0.66817863791928955
0
ENDSEC
0
SECTION
2
OBJECTS
0
DICTIONARY
5
C
100
AcDbDictionary
3
ACAD_GROUP
350
D
3
ACAD_MLINESTYLE
350
17
0
DICTIONARY
5
D
100
AcDbDictionary
0
DICTIONARY
5
1A
330
C
100
AcDbDictionary
0
DICTIONARY
5
17
100
AcDbDictionary
0
ENDSEC
0
EOF
