0
SECTION
2
HEADER
9
$INSUNITS
70
4
9
$ACADVER
1
AC1014
9
$HANDSEED
5
FFFF
0
ENDSEC
0
SECTION
2
TABLES
0
TABLE
2
VPORT
5
8
100
AcDbSymbolTable
0
ENDTAB
0
TABLE
2
LTYPE
5
5
100
AcDbSymbolTable
0
LTYPE
5
14
100
AcDbSymbolTableRecord
100
AcDbLinetypeTableRecord
2
BYBLOCK
70
0
0
LTYPE
5
15
100
AcDbSymbolTableRecord
100
AcDbLinetypeTableRecord
2
BYLAYER
70
0
0
ENDTAB
0
TABLE
2
LAYER
5
2
100
AcDbSymbolTable
70
2
0
LAYER
5
50
100
AcDbSymbolTableRecord
100
AcDbLayerTableRecord
2
0
70
0
6
CONTINUOUS
0
ENDTAB
0
TABLE
2
STYLE
5
3
100
AcDbSymbolTable
70
1
0
STYLE
5
11
100
AcDbSymbolTableRecord
100
AcDbTextStyleTableRecord
2
STANDARD
70
0
0
ENDTAB
0
TABLE
2
VIEW
5
6
100
AcDbSymbolTable
70
0
0
ENDTAB
0
TABLE
2
UCS
5
7
100
AcDbSymbolTable
70
0
0
ENDTAB
0
TABLE
2
APPID
5
9
100
AcDbSymbolTable
70
2
0
APPID
5
12
100
AcDbSymbolTableRecord
100
AcDbRegAppTableRecord
2
ACAD
70
0
0
ENDTAB
0
TABLE
2
DIMSTYLE
5
A
100
AcDbSymbolTable
70
1
0
ENDTAB
0
TABLE
2
BLOCK_RECORD
5
1
100
AcDbSymbolTable
70
1
0
BLOCK_RECORD
5
1F
100
AcDbSymbolTableRecord
100
AcDbBlockTableRecord
2
*MODEL_SPACE
0
BLOCK_RECORD
5
1B
100
AcDbSymbolTableRecord
100
AcDbBlockTableRecord
2
*PAPER_SPACE
0
ENDTAB
0
ENDSEC
0
SECTION
2
BLOCKS
0
BLOCK
5
20
100
AcDbEntity
100
AcDbBlockBegin
2
*MODEL_SPACE
0
ENDBLK
5
21
100
AcDbEntity
100
AcDbBlockEnd
0
BLOCK
5
1C
100
AcDbEntity
100
AcDbBlockBegin
2
*PAPER_SPACE
0
ENDBLK
5
1D
100
AcDbEntity
100
AcDbBlockEnd
0
ENDSEC
0
SECTION
2
ENTITIES
0
ARC
5
100
100
AcDbEntity
8
0
100
AcDbCircle
10
15.362662094898633
20
40.051931219875215
30
0
40
3.9999999999998459
210
0
220
0
230
1
100
AcDbArc
50
-24.685724306485657
51
44.447830690925443
0
SPLINE
5
101
100
AcDbEntity
8
0
100
AcDbSpline
70
0
71
5
72
13
73
7
74
0
42
0.000000001
43
0.0000000001
44
0.0000000001
40
0.68587966852436977
40
0.68587966852436977
40
0.68587966852436977
40
0.68587966852436977
40
0.68587966852436977
40
0.68587966852436977
40
0.80000000000000004
40
1
40
1
40
1
40
1
40
1
40
1
10
18.21821549353982
20
42.852969382326549
30
0
10
18.145014512306254
20
42.927595038466471
30
0
10
17.943526169325622
20
43.133004850549604
30
0
10
17.742037826345094
20
43.338414662633092
30
0
10
17.540549483364622
20
43.54382447471697
30
0
10
17.339061140384175
20
43.749234286801126
30
0
10
17.210773778637215
20
43.880018442745055
30
0
0
SPLINE
5
102
100
AcDbEntity
8
0
100
AcDbSpline
70
0
71
5
72
21
73
15
74
0
42
0.000000001
43
0.0000000001
44
0.0000000001
40
0
40
0
40
0
40
0
40
0
40
0
40
0.10000000000000001
40
0.20000000000000001
40
0.30000000000000004
40
0.40000000000000002
40
0.5
40
0.59999999999999998
40
0.69999999999999996
40
0.79999999999999982
40
0.8999999999999998
40
1
40
1
40
1
40
1
40
1
40
1
10
17.256268155590099
20
-38.225407421643723
30
0
10
17.18917869625384
20
-38.603986787863619
30
0
10
17.023365712232202
20
-39.355539529776074
30
0
10
16.687680700398406
20
-40.421305647861743
30
0
10
16.085043395153139
20
-41.594159626495006
30
0
10
15.086088497736265
20
-42.52334246009238
30
0
10
13.850170382897762
20
-42.915081421701331
30
0
10
12.417239026234839
20
-42.837084722188365
30
0
10
10.893594929841877
20
-42.381879378217036
30
0
10
9.5047128508248075
20
-41.627548331396717
30
0
10
8.4975718773435549
20
-40.640129020123723
30
0
10
8.1212567165836944
20
-39.714280382608756
30
0
10
8.0562681555900983
20
-38.975407421643723
30
0
10
8.0562681555900983
20
-38.475407421643723
30
0
10
8.0562681555900983
20
-38.225407421643723
30
0
0
CIRCLE
5
103
100
AcDbEntity
8
0
100
AcDbCircle
10
12.499999999999989
20
38.000000298023231
30
0
40
1.5000000000000002
210
0
220
0
230
1
0
ARC
5
104
100
AcDbEntity
8
0
100
AcDbCircle
10
14.355220379994488
20
41.078980280295212
30
0
40
4.0000000000000533
210
0
220
-0
230
1
100
AcDbArc
50
44.447830690894719
51
113.97899898792649
0
LWPOLYLINE
5
105
100
AcDbEntity
8
0
100
AcDbPolyline
90
10
70
1
43
0.0
10
-6.0104076400856519
20
32.631727983645298
42
-0.41421356237309137
10
-4.5961940777125596
20
32.631727983645298
10
0
20
28.035533905932738
10
4.5961940777125587
20
32.631727983645298
42
-0.41421356237309759
10
6.0104076400856554
20
32.631727983645298
10
6.3639610306789258
20
32.278174593052043
42
-0.41421356237309093
10
6.3639610306789285
20
30.863961030678929
10
0
20
24.5
10
-6.363961030678932
20
30.86396103067894
42
-0.41421356237309548
10
-6.363961030678932
20
32.278174593052029
0
LINE
5
106
100
AcDbEntity
8
0
100
AcDbLine
10
8.0562681555900983
20
-25.72540742164373
30
0
11
8.0562681555900983
21
-38.225407421643723
31
0
0
LINE
5
107
100
AcDbEntity
8
0
100
AcDbLine
10
-17.799999602139025
20
-32.519619334483885
30
0
11
-17.799999602139014
21
31.000000386685151
31
0
0
LINE
5
108
100
AcDbEntity
8
0
100
AcDbLine
10
-11.104006238187392
20
44.388536122076133
30
0
11
11.104006238187383
21
44.388536122076133
31
0
0
SPLINE
5
109
100
AcDbEntity
8
0
100
AcDbSpline
70
0
71
5
72
13
73
7
74
0
42
0.000000001
43
0.0000000001
44
0.0000000001
40
0.68587966852436977
40
0.68587966852436977
40
0.68587966852436977
40
0.68587966852436977
40
0.68587966852436977
40
0.68587966852436977
40
0.80000000000000004
40
1
40
1
40
1
40
1
40
1
40
1
10
-18.21821549353983
20
42.852969382326549
30
0
10
-18.145014512306265
20
42.927595038466471
30
0
10
-17.943526169325629
20
43.133004850549604
30
0
10
-17.742037826345104
20
43.338414662633092
30
0
10
-17.540549483364629
20
43.54382447471697
30
0
10
-17.339061140384182
20
43.749234286801126
30
0
10
-17.210773778637225
20
43.880018442745055
30
0
0
SPLINE
5
110
100
AcDbEntity
8
0
100
AcDbSpline
70
4
71
5
72
16
73
10
74
0
42
0.000000001
43
0.0000000001
44
0.0000000001
40
0
40
0
40
0
40
0
40
0
40
0
40
0.20000000000000001
40
0.40000000000000002
40
0.60000000000000009
40
0.80000000000000004
40
1
40
1
40
1
40
1
40
1
40
1
41
1
41
1
41
1
41
1
41
1
41
1
41
1
41
1
41
1
41
1
10
-17.256268155590128
20
-38.225407421643723
30
0
10
-17.27801741344998
20
-37.997175898148633
30
0
10
-17.321515929170218
20
-37.540712851160734
30
0
10
-17.386763702752265
20
-36.85601828068615
30
0
10
-17.473760734198038
20
-35.943092186733018
30
0
10
-17.582507023508953
20
-34.80193456930693
30
0
10
-17.669504054959837
20
-33.889008475374062
30
0
10
-17.734751828549033
20
-33.204313904927773
30
0
10
-17.778250344275612
20
-32.747850857964941
30
0
10
-17.799999602139025
20
-32.519619334483878
30
0
0
LWPOLYLINE
5
111
100
AcDbEntity
8
0
100
AcDbPolyline
90
10
70
1
43
0.0
10
0
20
16.833333333333336
10
6.3639610306789276
20
23.197294364012265
42
0.41421356237309365
10
6.3639610306789258
20
24.611507926385357
10
6.0104076400856528
20
24.96506131697863
42
0.41421356237309137
10
4.5961940777125605
20
24.96506131697863
10
0
20
20.368867239266073
10
-4.5961940777125587
20
24.965061316978634
42
0.41421356237309576
10
-6.0104076400856554
20
24.96506131697863
10
-6.3639610306789258
20
24.611507926385357
42
0.41421356237309759
10
-6.3639610306789285
20
23.197294364012265
0
LWPOLYLINE
5
112
100
AcDbEntity
8
0
100
AcDbPolyline
90
4
70
1
43
0.0
10
-13.000000193715096
20
11.999999850988392
42
0.99999999999999989
10
-11.000000163912773
20
11.99999985098839
10
-11.000000163912773
20
32.000000149011605
42
0.99999999999999989
10
-13.000000193715096
20
32.000000149011605
0
CIRCLE
5
113
100
AcDbEntity
8
0
100
AcDbCircle
10
-12.500000000000027
20
-38.000000298023231
30
0
40
1.5000000000000002
210
0
220
0
230
1
0
ARC
5
114
100
AcDbEntity
8
0
100
AcDbCircle
10
-11.104006238187353
20
48.388536122076289
30
0
40
4.0000000000001421
210
0
220
0
230
1
100
AcDbArc
50
246.02100101207378
51
269.99999999999943
0
CIRCLE
5
115
100
AcDbEntity
8
0
100
AcDbCircle
10
-12.5
20
38.000000298023231
30
0
40
1.5000000000000002
210
0
220
0
230
1
0
ARC
5
116
100
AcDbEntity
8
0
100
AcDbCircle
10
-15.362662094898646
20
40.051931219875215
30
0
40
4.0000000000000018
210
0
220
0
230
1
100
AcDbArc
50
135.55216930907457
51
204.68572430648538
0
ARC
5
117
100
AcDbEntity
8
0
100
AcDbCircle
10
-14.355220379994496
20
41.078980280295212
30
0
40
4.0000000000000293
210
0
220
-0
230
1
100
AcDbArc
50
66.021001012073626
51
135.55216930910532
0
CIRCLE
5
118
100
AcDbEntity
8
0
100
AcDbCircle
10
12.5
20
-38.000000298023231
30
0
40
1.5000000000000002
210
0
220
0
230
1
0
SPLINE
5
119
100
AcDbEntity
8
0
100
AcDbSpline
70
4
71
5
72
16
73
10
74
0
42
0.000000001
43
0.0000000001
44
0.0000000001
40
0
40
0
40
0
40
0
40
0
40
0
40
0.20000000000000001
40
0.40000000000000002
40
0.60000000000000009
40
0.80000000000000004
40
1
40
1
40
1
40
1
40
1
40
1
41
1
41
1
41
1
41
1
41
1
41
1
41
1
41
1
41
1
41
1
10
18.99711115165621
20
38.381368424338106
30
0
10
18.936942761812531
20
38.085603632017978
30
0
10
18.814337941951756
20
37.494701472479221
30
0
10
18.623638282692909
20
36.610228359790383
30
0
10
18.362482200646685
20
35.433778246209798
30
0
10
18.062510479472
20
33.96358510889079
30
0
10
17.885701133070285
20
32.783509566510709
30
0
10
17.814550928056242
20
31.893897926159017
30
0
10
17.799455329163631
20
31.298374757604481
30
0
10
17.799999602138996
20
31.000000386685137
30
0
0
LINE
5
120
100
AcDbEntity
8
0
100
AcDbLine
10
17.799999602138996
20
-32.519619334483885
30
0
11
17.799999602138996
21
31.000000386685137
31
0
0
ARC
5
121
100
AcDbEntity
8
0
100
AcDbCircle
10
11.104006238187342
20
48.388536122076289
30
0
40
4.0000000000001368
210
0
220
0
230
1
100
AcDbArc
50
270.00000000000063
51
293.97899898792616
0
LINE
5
122
100
AcDbEntity
8
0
100
AcDbLine
10
-8.0562681555901214
20
-25.725407421643709
30
0
11
-8.056268155590125
21
-38.225407421643702
31
0
0
SPLINE
5
123
100
AcDbEntity
8
0
100
AcDbSpline
70
4
71
5
72
16
73
10
74
0
42
0.000000001
43
0.0000000001
44
0.0000000001
40
0
40
0
40
0
40
0
40
0
40
0
40
0.20000000000000001
40
0.40000000000000002
40
0.60000000000000009
40
0.80000000000000004
40
1
40
1
40
1
40
1
40
1
40
1
41
1
41
1
41
1
41
1
41
1
41
1
41
1
41
1
41
1
41
1
10
17.256268155590099
20
-38.225407421643723
30
0
10
17.278017413449952
20
-37.997175898148633
30
0
10
17.321515929170186
20
-37.540712851160734
30
0
10
17.386763702752241
20
-36.85601828068615
30
0
10
17.473760734198006
20
-35.943092186733018
30
0
10
17.582507023508931
20
-34.80193456930693
30
0
10
17.669504054959809
20
-33.889008475374062
30
0
10
17.734751828549015
20
-33.204313904927773
30
0
10
17.778250344275595
20
-32.747850857964949
30
0
10
17.799999602138996
20
-32.519619334483885
30
0
0
LWPOLYLINE
5
124
100
AcDbEntity
8
0
100
AcDbPolyline
90
4
70
1
43
0.0
10
13.000000193715096
20
32.000000149011605
42
0.99999999999999989
10
11.000000163912773
20
32.000000149011605
10
11.000000163912773
20
11.99999985098839
42
0.99999999999999989
10
13.000000193715096
20
11.99999985098839
0
LWPOLYLINE
5
125
100
AcDbEntity
8
0
100
AcDbPolyline
90
4
70
1
43
0.0
10
13.000000193715096
20
4.0000001490116075
42
0.99999999999999989
10
11.000000163912773
20
4.0000001490116084
10
11.000000163912773
20
-16.000000149011619
42
0.99999999999999989
10
13.000000193715096
20
-16.000000149011623
0
ARC
5
126
100
AcDbEntity
8
0
100
AcDbCircle
10
-1.1102230246251565e-14
20
-25.72540742164373
30
0
40
8.056268155590109
210
0
220
0
230
1
100
AcDbArc
50
0
51
180
0
LWPOLYLINE
5
127
100
AcDbEntity
8
0
100
AcDbPolyline
90
4
70
1
43
0.0
10
-13.000000193715096
20
-16.000000149011619
42
0.99999999999999989
10
-11.000000163912773
20
-16.000000149011623
10
-11.000000163912773
20
4.0000001490116111
42
0.99999999999999989
10
-13.000000193715096
20
4.0000001490116137
0
SPLINE
5
128
100
AcDbEntity
8
0
100
AcDbSpline
70
0
71
5
72
21
73
15
74
0
42
0.000000001
43
0.0000000001
44
0.0000000001
40
0
40
0
40
0
40
0
40
0
40
0
40
0.10000000000000001
40
0.20000000000000001
40
0.30000000000000004
40
0.40000000000000002
40
0.5
40
0.59999999999999998
40
0.69999999999999996
40
0.79999999999999982
40
0.8999999999999998
40
1
40
1
40
1
40
1
40
1
40
1
10
-17.256268155590128
20
-38.225407421643723
30
0
10
-17.189178696253869
20
-38.603986787863619
30
0
10
-17.023365712232234
20
-39.355539529776074
30
0
10
-16.687680700398431
20
-40.421305647861743
30
0
10
-16.085043395153168
20
-41.594159626495006
30
0
10
-15.086088497736291
20
-42.52334246009238
30
0
10
-13.850170382897788
20
-42.915081421701331
30
0
10
-12.417239026234865
20
-42.837084722188365
30
0
10
-10.893594929841905
20
-42.381879378217036
30
0
10
-9.5047128508248342
20
-41.627548331396717
30
0
10
-8.4975718773435815
20
-40.640129020123723
30
0
10
-8.1212567165837211
20
-39.714280382608756
30
0
10
-8.0562681555901232
20
-38.975407421643723
30
0
10
-8.0562681555901232
20
-38.475407421643723
30
0
10
-8.0562681555901232
20
-38.225407421643723
30
0
0
SPLINE
5
129
100
AcDbEntity
8
0
100
AcDbSpline
70
4
71
5
72
16
73
10
74
0
42
0.000000001
43
0.0000000001
44
0.0000000001
40
0
40
0
40
0
40
0
40
0
40
0
40
0.20000000000000001
40
0.40000000000000002
40
0.60000000000000009
40
0.80000000000000004
40
1
40
1
40
1
40
1
40
1
40
1
41
1
41
1
41
1
41
1
41
1
41
1
41
1
41
1
41
1
41
1
10
-18.99711115165622
20
38.381368424338113
30
0
10
-18.936942761812546
20
38.085603632017978
30
0
10
-18.814337941951763
20
37.494701472479221
30
0
10
-18.623638282692919
20
36.610228359790391
30
0
10
-18.362482200646703
20
35.433778246209812
30
0
10
-18.062510479472007
20
33.96358510889079
30
0
10
-17.885701133070299
20
32.78350956651073
30
0
10
-17.814550928056253
20
31.893897926159021
30
0
10
-17.799455329163642
20
31.298374757604481
30
0
10
-17.799999602139007
20
31.000000386685144
30
0
0
CIRCLE
5
130
100
AcDbEntity
8
0
100
AcDbCircle
10
1.9779164310609581e-14
20
2.3308607339463783
30
0
40
2.7999999999999998
210
0
220
0
230
1
0
CIRCLE
5
131
100
AcDbEntity
8
0
100
AcDbCircle
10
1.9779164310609581e-14
20
2.3308607339463783
30
0
40
2.1099999999999999
210
0
220
0
230
1
0
LWPOLYLINE
5
132
100
AcDbEntity
8
0
100
AcDbPolyline
90
10
70
1
43
0.0
10
-6.0104076400856554
20
17.298061316978629
10
-6.3639610306789258
20
16.944507926385359
42
0.41421356237309759
10
-6.3639610306789285
20
15.530294364012265
10
0
20
9.1663333333333359
10
6.3639610306789276
20
15.530294364012265
42
0.41421356237309365
10
6.3639610306789258
20
16.944507926385356
10
6.0104076400856528
20
17.298061316978629
42
0.41421356237309137
10
4.5961940777125605
20
17.298061316978629
10
0
20
12.701867239266074
10
-4.5961940777125587
20
17.298061316978629
42
0.41421356237309576
0
LWPOLYLINE
5
133
100
AcDbEntity
8
0
100
AcDbPolyline
90
10
70
1
43
0.0
10
6.3639610306789276
20
-12.282773447853209
42
0.41421356237309775
10
6.3639610306789285
20
-10.868559885480117
10
0
20
-4.5045988548011895
10
-6.3639610306789258
20
-10.868559885480121
42
0.41421356237309348
10
-6.3639610306789249
20
-12.282773447853209
10
-6.0104076400856519
20
-12.636326838446482
42
0.41421356237309126
10
-4.5961940777125605
20
-12.636326838446482
10
0
20
-8.0401327607339272
10
4.5961940777125596
20
-12.636326838446482
42
0.41421356237309587
10
6.0104076400856563
20
-12.636326838446482
0
ENDSEC
0
SECTION
2
OBJECTS
0
DICTIONARY
5
C
100
AcDbDictionary
3
ACAD_GROUP
350
D
3
ACAD_MLINESTYLE
350
17
0
DICTIONARY
5
D
100
AcDbDictionary
0
DICTIONARY
5
1A
330
C
100
AcDbDictionary
0
DICTIONARY
5
17
100
AcDbDictionary
0
ENDSEC
0
EOF
